<svg width="28" height="28" viewBox="0 0 28 28" fill="none" xmlns="http://www.w3.org/2000/svg">
<path d="M8.75046 5.30849C8.66616 5.39456 8.60219 5.49831 8.54875 5.61206L8.54273 5.60591L0.100844 25.0235L0.109124 25.032C-0.0474306 25.3417 0.214497 25.9719 0.751146 26.5206C1.2878 27.0686 1.90498 27.336 2.2083 27.1761L2.21583 27.1838L21.2326 18.5633L21.2266 18.5564C21.3373 18.5026 21.4389 18.4372 21.5239 18.3496C22.6996 17.1492 20.7931 13.2566 17.2669 9.65527C13.7391 6.05396 9.92688 4.10805 8.75046 5.30849Z" fill="#DD2E44"/>
<path d="M9.78462 8.77612L0.313096 24.5357L0.100844 25.0237L0.109124 25.0322C-0.0474306 25.3419 0.214497 25.9721 0.751146 26.5208C0.925764 26.6991 1.10716 26.8344 1.28478 26.9489L12.7953 12.6188L9.78462 8.77612Z" fill="#EA596E"/>
<path d="M17.3205 9.59523C20.8354 13.1859 22.7871 17.0133 21.6777 18.1446C20.569 19.2774 16.8207 17.2854 13.3035 13.6962C9.78784 10.1055 7.83694 6.27663 8.94561 5.14455C10.055 4.01247 13.8033 6.00456 17.3205 9.59523Z" fill="#A0041E"/>
<path d="M13.9922 10.0127C13.8424 10.1364 13.6468 10.201 13.4398 10.1779C12.7865 10.1057 12.237 9.87359 11.8524 9.50699C11.4452 9.11887 11.2442 8.59779 11.2992 8.07595C11.3955 7.15983 12.2957 6.31904 13.8304 6.48812C14.4273 6.55344 14.6937 6.35746 14.7027 6.2637C14.7133 6.17071 14.4943 5.92093 13.8974 5.85483C13.2441 5.78259 12.6946 5.55048 12.3093 5.18388C11.9021 4.79576 11.7004 4.27469 11.7561 3.75284C11.8539 2.83672 12.7533 1.99593 14.2865 2.16578C14.7216 2.21343 14.9511 2.12197 15.0482 2.06279C15.1257 2.01437 15.1566 1.96826 15.1596 1.94136C15.1686 1.84837 14.9526 1.59859 14.3543 1.53249C13.941 1.48638 13.6415 1.10825 13.6874 0.685547C13.7318 0.263611 14.1014 -0.0415039 14.5161 0.00460927C16.0493 0.172922 16.7538 1.18972 16.6567 2.1066C16.5588 3.02425 15.6594 3.86351 14.1247 3.6952C13.6897 3.64678 13.4624 3.73901 13.3645 3.79818C13.287 3.84583 13.2554 3.89272 13.2524 3.91885C13.2426 4.01261 13.4601 4.26162 14.0585 4.32772C15.5916 4.4968 16.2961 5.51282 16.199 6.42971C16.1019 7.34582 15.2025 8.18662 13.6686 8.01677C13.2335 7.96912 13.0047 8.06134 12.9069 8.11975C12.8286 8.16894 12.7985 8.21505 12.7955 8.24119C12.7857 8.33418 13.0032 8.58396 13.6008 8.65006C14.0133 8.69617 14.3136 9.07506 14.2677 9.497C14.2466 9.70758 14.142 9.88973 13.9922 10.0127Z" fill="#AA8DD8"/>
<path d="M23.0774 17.1204C24.5624 16.6923 25.5868 17.3686 25.8307 18.2563C26.0746 19.1432 25.5462 20.266 24.0619 20.6925C23.4824 20.8585 23.3085 21.1414 23.3318 21.2313C23.3574 21.322 23.6517 21.4711 24.2298 21.3043C25.714 20.8777 26.7384 21.5541 26.9823 22.4409C27.2276 23.3286 26.6978 24.4499 25.2128 24.8772C24.634 25.0432 24.4593 25.3268 24.4849 25.4167C24.5098 25.5066 24.8033 25.6557 25.3821 25.4897C25.781 25.3752 26.198 25.6127 26.3101 26.0208C26.4215 26.4296 26.189 26.8539 25.7885 26.9692C24.305 27.3957 23.2799 26.7209 23.0345 25.8325C22.7907 24.9456 23.3198 23.8243 24.8056 23.397C25.3851 23.2302 25.559 22.9482 25.5334 22.8575C25.5093 22.7676 25.2158 22.6177 24.6377 22.7837C23.152 23.211 22.1283 22.5362 21.8837 21.6471C21.6391 20.7602 22.1682 19.6389 23.6532 19.2108C24.2313 19.0456 24.4051 18.7612 24.3811 18.6721C24.3555 18.5814 24.0627 18.4323 23.4839 18.5983C23.0835 18.7136 22.6687 18.4753 22.5558 18.0672C22.4437 17.6599 22.677 17.2357 23.0774 17.1204Z" fill="#77B255"/>
<path d="M17.3121 15.0473C17.0908 15.0473 16.8726 14.9482 16.7235 14.7591C16.4639 14.4271 16.5173 13.9438 16.841 13.6786C17.005 13.5441 20.9189 10.4055 26.4502 11.2132C26.8619 11.2732 27.1479 11.6621 27.0892 12.0824C27.0305 12.502 26.6527 12.7971 26.2372 12.7341C21.3502 12.0256 17.8172 14.8506 17.7825 14.879C17.6426 14.9928 17.477 15.0473 17.3121 15.0473Z" fill="#AA8DD8"/>
<path d="M4.33086 11.8504C4.25936 11.8504 4.18635 11.8396 4.11409 11.8181C3.71593 11.6959 3.49013 11.2678 3.60981 10.8613C4.46258 7.96156 5.23556 3.3342 4.2857 2.12759C4.17957 1.99079 4.01926 1.8563 3.65196 1.88474C2.94596 1.94007 3.01295 3.46101 3.0137 3.47638C3.04531 3.89984 2.73371 4.26874 2.31974 4.30025C1.899 4.32638 1.54375 4.01435 1.51289 3.59089C1.43536 2.53108 1.75826 0.48984 3.53906 0.352271C4.33387 0.290788 4.99396 0.572841 5.45986 1.16462C7.24442 3.43257 5.43276 10.0074 5.05191 11.3032C4.95407 11.6359 4.65451 11.8504 4.33086 11.8504Z" fill="#77B255"/>
<path d="M19.193 8.00747C19.8165 8.00747 20.322 7.49135 20.322 6.85469C20.322 6.21802 19.8165 5.7019 19.193 5.7019C18.5694 5.7019 18.064 6.21802 18.064 6.85469C18.064 7.49135 18.5694 8.00747 19.193 8.00747Z" fill="#5C913B"/>
<path d="M1.50533 14.9236C2.3367 14.9236 3.01066 14.2355 3.01066 13.3866C3.01066 12.5377 2.3367 11.8496 1.50533 11.8496C0.673959 11.8496 0 12.5377 0 13.3866C0 14.2355 0.673959 14.9236 1.50533 14.9236Z" fill="#9266CC"/>
<path d="M24.4615 15.6924C25.085 15.6924 25.5905 15.1764 25.5905 14.5398C25.5905 13.9032 25.085 13.3872 24.4615 13.3872C23.838 13.3872 23.3325 13.9032 23.3325 14.5398C23.3325 15.1764 23.838 15.6924 24.4615 15.6924Z" fill="#5C913B"/>
<path d="M17.6878 24.9154C18.3114 24.9154 18.8168 24.3993 18.8168 23.7626C18.8168 23.126 18.3114 22.6099 17.6878 22.6099C17.0643 22.6099 16.5588 23.126 16.5588 23.7626C16.5588 24.3993 17.0643 24.9154 17.6878 24.9154Z" fill="#5C913B"/>
<path d="M21.0744 4.16483C21.9058 4.16483 22.5797 3.47664 22.5797 2.6277C22.5797 1.77877 21.9058 1.09058 21.0744 1.09058C20.243 1.09058 19.5691 1.77877 19.5691 2.6277C19.5691 3.47664 20.243 4.16483 21.0744 4.16483Z" fill="#FFCC4D"/>
<path d="M24.4615 7.23903C25.085 7.23903 25.5905 6.72294 25.5905 6.08631C25.5905 5.44968 25.085 4.93359 24.4615 4.93359C23.838 4.93359 23.3325 5.44968 23.3325 6.08631C23.3325 6.72294 23.838 7.23903 24.4615 7.23903Z" fill="#FFCC4D"/>
<path d="M22.2035 10.313C22.827 10.313 23.3325 9.79682 23.3325 9.16005C23.3325 8.52328 22.827 8.00708 22.2035 8.00708C21.5799 8.00708 21.0745 8.52328 21.0745 9.16005C21.0745 9.79682 21.5799 10.313 22.2035 10.313Z" fill="#FFCC4D"/>
<path d="M5.64511 18.767C6.26864 18.767 6.77411 18.2509 6.77411 17.6142C6.77411 16.9775 6.26864 16.4614 5.64511 16.4614C5.02158 16.4614 4.51611 16.9775 4.51611 17.6142C4.51611 18.2509 5.02158 18.767 5.64511 18.767Z" fill="#FFCC4D"/>
</svg>
