<svg width="24" height="35" viewBox="0 0 24 35" fill="none" xmlns="http://www.w3.org/2000/svg">
<path d="M23.2251 19.2086C23.2251 19.2086 23.306 16.9564 21.6851 16.2832C20.2517 15.6873 19.6997 16.8763 19.6997 16.8763C19.6997 16.8763 19.7504 15.0522 18.0307 14.3762C16.4098 13.7402 15.6661 15.2906 15.6661 15.2906C15.6661 15.2906 15.4021 13.5056 13.6952 12.986C12.2584 12.5473 11.187 14.0978 11.187 14.0978V2.45626C11.187 1.54279 10.721 0.000953949 9.00124 4.30351e-07C7.28151 -0.000953088 6.88769 1.58284 6.88769 2.45626V22.0034C6.88769 22.9569 6.02782 22.9569 6.02782 22.0034V19.4613C6.02782 15.8456 4.27628 13.6048 3.66319 12.985C3.05011 12.3652 2.2298 12.0506 1.23837 12.2851C-0.443527 12.6818 -0.0763645 14.1159 0.400861 15.3335C1.54964 18.2685 2.33814 22.4506 2.5789 24.4282C3.2582 30.0139 7.573 34.3209 12.7967 34.3267C18.4942 34.3305 23.2208 29.2749 23.2251 22.9569V19.2086Z" fill="#F7DECE"/>
</svg>
