<svg width="30" height="28" viewBox="0 0 30 28" fill="none" xmlns="http://www.w3.org/2000/svg">
<path d="M27.2043 24.0375C27.2043 25.7889 25.7205 27.2218 23.9068 27.2218H5.77064C3.95702 27.2218 2.47314 25.7889 2.47314 24.0375V10.5043C2.47314 8.75299 3.95702 7.32007 5.77064 7.32007H23.9068C25.7205 7.32007 27.2043 8.75299 27.2043 10.5043V24.0375Z" fill="#FDD888"/>
<path d="M29.6774 8.11656C29.6774 9.8678 28.1936 11.3006 26.3799 11.3006H3.29749C1.48387 11.3006 0 9.8678 0 8.11656C0 6.36533 1.48387 4.9325 3.29749 4.9325H26.3799C28.1936 4.9325 29.6774 6.36533 29.6774 8.11656Z" fill="#FDD888"/>
<path d="M2.47314 11.3007H27.2043V12.8928H2.47314V11.3007Z" fill="#FCAB40"/>
<path d="M15.6629 1.74841H14.0141C12.6481 1.74841 11.541 2.81751 11.541 4.13657V27.2221H18.136V4.13657C18.136 2.81831 17.0289 1.74841 15.6629 1.74841Z" fill="#DA2F47"/>
<path d="M13.1905 4.93249C14.0973 4.93249 14.2317 4.52171 13.4881 4.01937L7.94664 0.272957C7.20306 -0.229378 6.22783 -0.018413 5.77772 0.741856L4.11578 3.55047C3.66568 4.31074 4.03994 4.93249 4.94675 4.93249H13.1905ZM16.488 4.93249C15.5812 4.93249 15.4468 4.52171 16.1904 4.01937L21.7326 0.272957C22.4754 -0.229378 23.4514 -0.018413 23.9016 0.741856L25.5635 3.54968C26.0128 4.31074 25.6385 4.93249 24.7317 4.93249H16.488Z" fill="#DA2F47"/>
</svg>
