<svg width="49" height="46" viewBox="0 0 49 46" fill="none" xmlns="http://www.w3.org/2000/svg">
<path d="M19.0556 34.2305H43.5556C46.5623 34.2305 49 36.5726 49 39.4613V45.9999H13.6111V39.4613C13.6111 36.5726 16.0489 34.2305 19.0556 34.2305Z" fill="#4289C1"/>
<path d="M20.4168 40.769H19.0557V46.0002H20.4168V40.769ZM43.5557 40.769H42.1946V46.0002H43.5557V40.769Z" fill="#2A6797"/>
<path d="M35.3887 27.6924V35.5387C35.3887 37.7056 33.5607 39.4618 31.3053 39.4618C29.05 39.4618 27.222 37.7056 27.222 35.5387V27.6924H35.3887Z" fill="#F7DECE"/>
<path d="M9.52789 45.9999H19.0557L17.6946 23.769H9.52789V45.9999Z" fill="#4289C1"/>
<path d="M6.06907 19.1177C6.26507 18.2115 7.18791 17.6283 8.13388 17.814L11.7735 18.5384H14.9721C16.4748 18.5384 17.6943 19.71 17.6943 21.1536V23.7688H10.8888C9.42013 23.7688 8.23052 22.6482 8.17744 21.2491L7.69424 21.1536H6.80544C6.80544 21.0569 6.84355 20.9653 6.86668 20.8712C6.26235 20.5103 5.91663 19.8264 6.06907 19.1177Z" fill="#EEC2AD"/>
<path d="M0.000106812 19.8466C0.000106812 19.1248 0.608524 18.5389 1.36122 18.5389L9.52789 19.8466H16.3334C17.0861 19.8466 17.6946 20.4324 17.6946 21.1543V23.7696H9.52789L1.36122 21.1543C1.36122 21.1543 0.000106812 20.5697 0.000106812 19.8466ZM43.5557 6.68872V21.1543C43.5557 27.6548 38.0717 32.9234 31.3057 32.9234C24.5396 32.9234 19.0557 27.6548 19.0557 21.1543V7.09672L43.5557 6.68872Z" fill="#F7DECE"/>
<path d="M36.75 27.6924H25.8611C25.8611 27.6924 27.2222 30.3077 31.3056 30.3077C35.3889 30.3077 36.75 27.6924 36.75 27.6924Z" fill="#C1694F"/>
<path d="M36.7502 19.8462C37.5016 19.8462 38.1113 19.2603 38.1113 18.5385V17.2308C38.1113 16.5089 37.5016 15.9231 36.7502 15.9231C35.9989 15.9231 35.3891 16.5089 35.3891 17.2308V18.5385C35.3891 19.2603 35.9989 19.8462 36.7502 19.8462ZM25.8613 19.8462C26.6127 19.8462 27.2224 19.2603 27.2224 18.5385V17.2308C27.2224 16.5089 26.6127 15.9231 25.8613 15.9231C25.11 15.9231 24.5002 16.5089 24.5002 17.2308V18.5385C24.5002 19.2603 25.11 19.8462 25.8613 19.8462Z" fill="#662113"/>
<path d="M29.9449 24.4232H32.6671C33.0428 24.4232 33.3477 24.1303 33.3477 23.7695C33.3477 23.4086 33.0428 23.1157 32.6671 23.1157H29.9449C29.5692 23.1157 29.2643 23.4086 29.2643 23.7695C29.2643 24.1303 29.5692 24.4232 29.9449 24.4232Z" fill="#C1694F"/>
<path d="M41.0409 16.8585C41.0409 18.9246 42.1311 20.5997 43.4745 20.5997C44.818 20.5997 45.9082 18.9246 45.9082 16.8585C45.9082 14.7923 44.818 13.1172 43.4745 13.1172C42.1311 13.1172 41.0409 14.7923 41.0409 16.8585ZM16.7015 16.8585C16.7015 18.9246 17.7904 20.5997 19.1351 20.5997C20.4799 20.5997 21.5688 18.9246 21.5688 16.8585C21.5688 14.7923 20.4799 13.1172 19.1351 13.1172C17.7904 13.1172 16.7015 14.7923 16.7015 16.8585Z" fill="#F7DECE"/>
<path d="M31.3052 0C40.8588 0 45.1055 6.12512 45.1055 11.2303C45.1055 16.3341 43.2775 17.7503 42.9821 16.3341C41.9205 11.2303 38.7355 9.66367 38.7355 9.66367C32.3655 14.7688 33.4271 10.685 33.4271 10.685C27.0585 16.8101 30.2421 10.685 30.2421 10.685C28.1188 12.7275 21.7501 12.7275 21.7501 12.7275C21.7501 12.7275 20.6885 14.2941 19.6282 16.3354C18.5665 18.378 17.5048 16.3354 17.5048 11.2316C17.5048 6.12512 22.8132 0 31.3052 0Z" fill="#292F33"/>
</svg>
