<svg width="49" height="46" viewBox="0 0 49 46" fill="none" xmlns="http://www.w3.org/2000/svg">
<path d="M29.9444 34.2305H5.44444C2.43775 34.2305 0 36.5726 0 39.4613V45.9999H35.3889V39.4613C35.3889 36.5726 32.9511 34.2305 29.9444 34.2305Z" fill="#4289C1"/>
<path d="M28.5832 40.769H29.9443V46.0002H28.5832V40.769ZM5.44434 40.769H6.80545V46.0002H5.44434V40.769Z" fill="#2A6797"/>
<path d="M13.6113 27.6924V35.5387C13.6113 37.7056 15.4393 39.4618 17.6947 39.4618C19.95 39.4618 21.778 37.7056 21.778 35.5387V27.6924H13.6113Z" fill="#F7DECE"/>
<path d="M39.4721 45.9999H29.9443L31.3054 23.769H39.4721V45.9999Z" fill="#4289C1"/>
<path d="M42.9309 19.1177C42.7349 18.2115 41.8121 17.6283 40.8661 17.814L37.2265 18.5384H34.0279C32.5252 18.5384 31.3057 19.71 31.3057 21.1536V23.7688H38.1112C39.5799 23.7688 40.7695 22.6482 40.8226 21.2491L41.3058 21.1536H42.1946C42.1946 21.0569 42.1565 20.9653 42.1333 20.8712C42.7376 20.5103 43.0834 19.8264 42.9309 19.1177Z" fill="#EEC2AD"/>
<path d="M48.9999 19.8466C48.9999 19.1248 48.3915 18.5389 47.6388 18.5389L39.4721 19.8466H32.6666C31.9139 19.8466 31.3054 20.4324 31.3054 21.1543V23.7696H39.4721L47.6388 21.1543C47.6388 21.1543 48.9999 20.5697 48.9999 19.8466ZM5.44434 6.68872V21.1543C5.44434 27.6548 10.9283 32.9234 17.6943 32.9234C24.4604 32.9234 29.9443 27.6548 29.9443 21.1543V7.09672L5.44434 6.68872Z" fill="#F7DECE"/>
<path d="M12.25 27.6924H23.1389C23.1389 27.6924 21.7778 30.3077 17.6944 30.3077C13.6111 30.3077 12.25 27.6924 12.25 27.6924Z" fill="#C1694F"/>
<path d="M12.2498 19.8462C11.4984 19.8462 10.8887 19.2603 10.8887 18.5385V17.2308C10.8887 16.5089 11.4984 15.9231 12.2498 15.9231C13.0011 15.9231 13.6109 16.5089 13.6109 17.2308V18.5385C13.6109 19.2603 13.0011 19.8462 12.2498 19.8462ZM23.1387 19.8462C22.3873 19.8462 21.7776 19.2603 21.7776 18.5385V17.2308C21.7776 16.5089 22.3873 15.9231 23.1387 15.9231C23.89 15.9231 24.4998 16.5089 24.4998 17.2308V18.5385C24.4998 19.2603 23.89 19.8462 23.1387 19.8462Z" fill="#662113"/>
<path d="M19.0551 24.4232H16.3329C15.9572 24.4232 15.6523 24.1303 15.6523 23.7695C15.6523 23.4086 15.9572 23.1157 16.3329 23.1157H19.0551C19.4308 23.1157 19.7357 23.4086 19.7357 23.7695C19.7357 24.1303 19.4308 24.4232 19.0551 24.4232Z" fill="#C1694F"/>
<path d="M7.95913 16.8585C7.95913 18.9246 6.86888 20.5997 5.52546 20.5997C4.18205 20.5997 3.0918 18.9246 3.0918 16.8585C3.0918 14.7923 4.18205 13.1172 5.52546 13.1172C6.86888 13.1172 7.95913 14.7923 7.95913 16.8585ZM32.2985 16.8585C32.2985 18.9246 31.2096 20.5997 29.8649 20.5997C28.5201 20.5997 27.4312 18.9246 27.4312 16.8585C27.4312 14.7923 28.5201 13.1172 29.8649 13.1172C31.2096 13.1172 32.2985 14.7923 32.2985 16.8585Z" fill="#F7DECE"/>
<path d="M17.6948 0C8.1412 0 3.89453 6.12512 3.89453 11.2303C3.89453 16.3341 5.7225 17.7503 6.01787 16.3341C7.07953 11.2303 10.2645 9.66367 10.2645 9.66367C16.6345 14.7688 15.5729 10.685 15.5729 10.685C21.9415 16.8101 18.7579 10.685 18.7579 10.685C20.8812 12.7275 27.2499 12.7275 27.2499 12.7275C27.2499 12.7275 28.3115 14.2941 29.3718 16.3354C30.4335 18.378 31.4952 16.3354 31.4952 11.2316C31.4952 6.12512 26.1868 0 17.6948 0Z" fill="#292F33"/>
</svg>
