<svg width="36" height="23" viewBox="0 0 36 23" fill="none" xmlns="http://www.w3.org/2000/svg">
<path d="M36 20.356C36 21.6045 35.104 22.6178 34 22.6178H2C0.896 22.6178 0 21.6045 0 20.356V2.26178C0 1.01328 0.896 0 2 0H34C35.104 0 36 1.01328 36 2.26178V20.356Z" fill="#99AAB5"/>
<path d="M5.5 10.1778C5.5 10.8032 5.052 11.3087 4.5 11.3087H3.5C2.948 11.3087 2.5 10.8032 2.5 10.1778V9.04691C2.5 8.42153 2.948 7.91602 3.5 7.91602H4.5C5.052 7.91602 5.5 8.42153 5.5 9.04691V10.1778ZM9.5 10.1778C9.5 10.8032 9.052 11.3087 8.5 11.3087H7.5C6.948 11.3087 6.5 10.8032 6.5 10.1778V9.04691C6.5 8.42153 6.948 7.91602 7.5 7.91602H8.5C9.052 7.91602 9.5 8.42153 9.5 9.04691V10.1778ZM13.5 10.1778C13.5 10.8032 13.052 11.3087 12.5 11.3087H11.5C10.948 11.3087 10.5 10.8032 10.5 10.1778V9.04691C10.5 8.42153 10.948 7.91602 11.5 7.91602H12.5C13.052 7.91602 13.5 8.42153 13.5 9.04691V10.1778ZM17.5 10.1778C17.5 10.8032 17.052 11.3087 16.5 11.3087H15.5C14.948 11.3087 14.5 10.8032 14.5 10.1778V9.04691C14.5 8.42153 14.948 7.91602 15.5 7.91602H16.5C17.052 7.91602 17.5 8.42153 17.5 9.04691V10.1778ZM21.5 10.1778C21.5 10.8032 21.053 11.3087 20.5 11.3087H19.5C18.947 11.3087 18.5 10.8032 18.5 10.1778V9.04691C18.5 8.42153 18.947 7.91602 19.5 7.91602H20.5C21.053 7.91602 21.5 8.42153 21.5 9.04691V10.1778ZM25.5 10.1778C25.5 10.8032 25.053 11.3087 24.5 11.3087H23.5C22.947 11.3087 22.5 10.8032 22.5 10.1778V9.04691C22.5 8.42153 22.947 7.91602 23.5 7.91602H24.5C25.053 7.91602 25.5 8.42153 25.5 9.04691V10.1778ZM29.5 10.1778C29.5 10.8032 29.053 11.3087 28.5 11.3087H27.5C26.947 11.3087 26.5 10.8032 26.5 10.1778V9.04691C26.5 8.42153 26.947 7.91602 27.5 7.91602H28.5C29.053 7.91602 29.5 8.42153 29.5 9.04691V10.1778ZM33.5 10.1778C33.5 10.8032 33.053 11.3087 32.5 11.3087H31.5C30.947 11.3087 30.5 10.8032 30.5 10.1778V9.04691C30.5 8.42153 30.947 7.91602 31.5 7.91602H32.5C33.053 7.91602 33.5 8.42153 33.5 9.04691V10.1778ZM7.5 14.7013C7.5 15.3267 7.052 15.8322 6.5 15.8322H5.5C4.948 15.8322 4.5 15.3267 4.5 14.7013V13.5704C4.5 12.9451 4.948 12.4396 5.5 12.4396H6.5C7.052 12.4396 7.5 12.9451 7.5 13.5704V14.7013ZM11.5 14.7013C11.5 15.3267 11.052 15.8322 10.5 15.8322H9.5C8.948 15.8322 8.5 15.3267 8.5 14.7013V13.5704C8.5 12.9451 8.948 12.4396 9.5 12.4396H10.5C11.052 12.4396 11.5 12.9451 11.5 13.5704V14.7013ZM15.5 14.7013C15.5 15.3267 15.052 15.8322 14.5 15.8322H13.5C12.948 15.8322 12.5 15.3267 12.5 14.7013V13.5704C12.5 12.9451 12.948 12.4396 13.5 12.4396H14.5C15.052 12.4396 15.5 12.9451 15.5 13.5704V14.7013ZM19.5 14.7013C19.5 15.3267 19.053 15.8322 18.5 15.8322H17.5C16.948 15.8322 16.5 15.3267 16.5 14.7013V13.5704C16.5 12.9451 16.948 12.4396 17.5 12.4396H18.5C19.053 12.4396 19.5 12.9451 19.5 13.5704V14.7013ZM23.5 14.7013C23.5 15.3267 23.053 15.8322 22.5 15.8322H21.5C20.947 15.8322 20.5 15.3267 20.5 14.7013V13.5704C20.5 12.9451 20.947 12.4396 21.5 12.4396H22.5C23.053 12.4396 23.5 12.9451 23.5 13.5704V14.7013ZM27.5 14.7013C27.5 15.3267 27.053 15.8322 26.5 15.8322H25.5C24.947 15.8322 24.5 15.3267 24.5 14.7013V13.5704C24.5 12.9451 24.947 12.4396 25.5 12.4396H26.5C27.053 12.4396 27.5 12.9451 27.5 13.5704V14.7013ZM31.5 14.7013C31.5 15.3267 31.053 15.8322 30.5 15.8322H29.5C28.947 15.8322 28.5 15.3267 28.5 14.7013V13.5704C28.5 12.9451 28.947 12.4396 29.5 12.4396H30.5C31.053 12.4396 31.5 12.9451 31.5 13.5704V14.7013ZM10 19.2249C10 19.8502 9.552 20.3557 9 20.3557H7C6.448 20.3557 6 19.8502 6 19.2249V18.094C6 17.4686 6.448 16.9631 7 16.9631H9C9.552 16.9631 10 17.4686 10 18.094V19.2249ZM30 19.2249C30 19.8502 29.553 20.3557 29 20.3557H27C26.447 20.3557 26 19.8502 26 19.2249V18.094C26 17.4686 26.447 16.9631 27 16.9631H29C29.553 16.9631 30 17.4686 30 18.094V19.2249ZM25 19.2249C25 19.8502 24.553 20.3557 24 20.3557H12C11.448 20.3557 11 19.8502 11 19.2249V18.094C11 17.4686 11.448 16.9631 12 16.9631H24C24.553 16.9631 25 17.4686 25 18.094V19.2249ZM5.5 3.48635C5.5 4.1106 5.052 4.61724 4.5 4.61724H3.5C2.948 4.61724 2.5 4.1106 2.5 3.48635C2.5 2.8621 2.948 2.35547 3.5 2.35547H4.5C5.052 2.35547 5.5 2.8621 5.5 3.48635ZM9.5 3.48635C9.5 4.1106 9.052 4.61724 8.5 4.61724H7.5C6.948 4.61724 6.5 4.1106 6.5 3.48635C6.5 2.8621 6.948 2.35547 7.5 2.35547H8.5C9.052 2.35547 9.5 2.8621 9.5 3.48635ZM13.5 3.48635C13.5 4.1106 13.052 4.61724 12.5 4.61724H11.5C10.948 4.61724 10.5 4.1106 10.5 3.48635C10.5 2.8621 10.948 2.35547 11.5 2.35547H12.5C13.052 2.35547 13.5 2.8621 13.5 3.48635ZM17.5 3.48635C17.5 4.1106 17.052 4.61724 16.5 4.61724H15.5C14.948 4.61724 14.5 4.1106 14.5 3.48635C14.5 2.8621 14.948 2.35547 15.5 2.35547H16.5C17.052 2.35547 17.5 2.8621 17.5 3.48635ZM21.5 3.48635C21.5 4.1106 21.053 4.61724 20.5 4.61724H19.5C18.947 4.61724 18.5 4.1106 18.5 3.48635C18.5 2.8621 18.947 2.35547 19.5 2.35547H20.5C21.053 2.35547 21.5 2.8621 21.5 3.48635ZM25.5 3.48635C25.5 4.1106 25.053 4.61724 24.5 4.61724H23.5C22.947 4.61724 22.5 4.1106 22.5 3.48635C22.5 2.8621 22.947 2.35547 23.5 2.35547H24.5C25.053 2.35547 25.5 2.8621 25.5 3.48635ZM29.5 3.48635C29.5 4.1106 29.053 4.61724 28.5 4.61724H27.5C26.947 4.61724 26.5 4.1106 26.5 3.48635C26.5 2.8621 26.947 2.35547 27.5 2.35547H28.5C29.053 2.35547 29.5 2.8621 29.5 3.48635ZM33.5 3.48635C33.5 4.1106 33.053 4.61724 32.5 4.61724H31.5C30.947 4.61724 30.5 4.1106 30.5 3.48635C30.5 2.8621 30.947 2.35547 31.5 2.35547H32.5C33.053 2.35547 33.5 2.8621 33.5 3.48635Z" fill="#292F33"/>
</svg>
