<svg width="26" height="29" viewBox="0 0 26 29" fill="none" xmlns="http://www.w3.org/2000/svg">
<path d="M21.8006 27.1095C20.6439 28.3297 18.77 28.3289 17.6147 27.1095L0.867289 9.4446C-0.288726 8.2252 -0.289466 6.24856 0.867289 5.02838L4.00748 1.7168C5.16349 0.497396 7.03813 0.497396 8.19415 1.7168L24.9393 19.3817C26.0954 20.6011 26.0954 22.5793 24.9401 23.7971L21.8006 27.1095Z" fill="#FFCC4D"/>
<path d="M6.62404 5.58088C6.33467 5.88534 5.86693 5.88534 5.57756 5.58088C5.28893 5.27564 5.28893 4.78148 5.57756 4.47624L8.19451 1.71582L9.24099 2.82046L6.62404 5.58088ZM10.81 6.68474C10.5213 6.98998 10.0521 6.98998 9.76349 6.68474C9.47412 6.3795 9.47412 5.88534 9.76349 5.58088L10.8107 4.47624L11.8572 5.58088L10.81 6.68474ZM11.8572 11.1002C11.5678 11.4054 11.0993 11.4054 10.8107 11.1002C10.5221 10.7949 10.5221 10.3008 10.8107 9.99631L13.4277 7.23588C13.7873 7.61529 14.1152 7.96034 14.4741 8.34052L11.8572 11.1002ZM16.0431 12.204C15.7545 12.5093 15.286 12.5093 14.9974 12.204C14.7073 11.8988 14.708 11.4046 14.9974 11.1002L16.0439 9.99553C16.4028 10.3757 16.7307 10.72 17.0903 11.1002L16.0431 12.204ZM17.0903 16.6202C16.801 16.9255 16.3332 16.9262 16.0439 16.6202C15.7545 16.315 15.7545 15.8216 16.0431 15.5164L18.6601 12.7567L19.7066 13.8606L17.0903 16.6202ZM22.3235 22.1403C22.0349 22.4455 21.5664 22.4455 21.2778 22.1403C20.9876 21.8351 20.9876 21.3417 21.277 21.0364L23.894 18.2768L24.9404 19.3806L22.3235 22.1403ZM21.2763 17.7241C20.9869 18.0293 20.5199 18.0293 20.2298 17.7249C19.9404 17.4196 19.9412 16.9255 20.2298 16.621L21.277 15.5172L22.3228 16.6202L21.2763 17.7241Z" fill="#292F33"/>
</svg>
